<svg xmlns="http://www.w3.org/2000/svg" width="606" height="411" viewBox="0 0 606 411" version="1.1"><path d="M 524 88 C 524.825 88.533, 526.400 88.969, 527.500 88.969 C 529.156 88.969, 529.242 88.803, 528 88 C 527.175 87.467, 525.600 87.031, 524.500 87.031 C 522.844 87.031, 522.758 87.197, 524 88 M 365.506 248.750 C 367.923 254.619, 367.120 255.077, 358.831 252.562 C 352.960 250.780, 350 251.449, 350 254.558 C 350 257.826, 348.828 258.203, 343.981 256.493 C 335.170 253.385, 330.476 254.791, 334.736 259.263 C 338.767 263.494, 332.453 268.918, 326.934 265.965 C 324.661 264.748, 324.485 265.735, 326.500 268.397 C 328.542 271.096, 327.524 272, 322.441 272 C 316.863 272, 316.631 273.707, 321.659 277.741 C 326.100 281.304, 325.438 283, 319.608 283 C 317.257 283, 315.037 283.296, 314.675 283.658 C 313.792 284.542, 315.912 287, 317.557 287 C 323.925 287, 325.115 290.677, 318.965 291.348 C 312.524 292.050, 314 294.706, 322.333 297.407 C 324.925 298.247, 323.857 300.439, 320.673 300.816 C 317.725 301.165, 317.026 303.689, 319.604 304.678 C 320.854 305.158, 321.072 306.146, 320.592 309.147 C 319.899 313.484, 321.017 314.077, 324.839 311.400 C 328.308 308.970, 330.990 311.786, 331.032 317.905 C 331.063 322.500, 331.063 322.500, 333.484 319.750 C 336.670 316.130, 337.587 316.273, 339.882 320.750 C 343.572 327.946, 345.781 329.758, 347.635 327.111 C 349.492 324.459, 351.531 325.830, 356.592 333.133 C 358.066 335.260, 359.599 337, 359.999 337 C 360.945 337, 359.106 326.843, 357.896 325.378 C 354.329 321.065, 350.730 304, 353.386 304 C 354.250 304, 355.016 302.397, 355.416 299.750 C 356.960 289.556, 365.413 281.218, 372.918 282.486 C 380.423 283.754, 382.903 286.885, 386.518 299.657 C 388.233 305.718, 388.321 305.821, 392.130 306.184 C 396.578 306.608, 396.451 306.773, 394.526 303.051 C 392.847 299.804, 394.360 297.434, 397.373 298.590 C 399.703 299.484, 399.450 296.718, 397 294.500 C 393.950 291.740, 394.421 289.186, 398.049 288.813 C 401.098 288.500, 401.098 288.500, 397.949 284.232 C 394.144 279.075, 394.543 276.521, 398.998 277.500 C 401.577 278.066, 401.904 277.912, 401.325 276.406 C 400.782 274.990, 401.022 274.795, 402.575 275.390 C 405.894 276.664, 398.870 269.912, 395.276 268.374 C 392.362 267.128, 392.145 266.748, 393.026 264.432 C 394.900 259.502, 393.165 255.024, 390.691 258.408 C 388.965 260.769, 387.663 260.011, 384.302 254.686 C 381.780 250.692, 381.648 250.622, 380.689 252.770 C 379.384 255.696, 379.253 255.665, 373 251 C 367.222 246.689, 364.296 245.810, 365.506 248.750 M 365.875 263 C 365.806 263.550, 365.637 264.450, 365.500 265 C 365.363 265.550, 365.194 266.520, 365.125 267.155 C 365.049 267.854, 364.218 267.602, 363.019 266.517 C 360.784 264.494, 358.621 265.518, 357.702 269.033 C 357.151 271.138, 359.531 271.908, 360.218 269.847 C 360.481 269.056, 361.437 269.240, 363.257 270.433 C 366.393 272.488, 368 271.813, 368 268.441 C 368 265.487, 369.534 265.261, 371 268 C 372.037 269.938, 375 270.824, 375 269.196 C 375 266.507, 366.185 260.522, 365.875 263 M 403.500 272 C 405.648 274.200, 407.631 276, 407.906 276 C 408.181 276, 406.648 274.200, 404.500 272 C 402.352 269.800, 400.369 268, 400.094 268 C 399.819 268, 401.352 269.800, 403.500 272 M 466.405 274.820 C 463.157 276.922, 459.175 280.381, 457.556 282.507 C 452.751 288.819, 448.852 291.851, 442.500 294.216 C 428.087 299.581, 419.770 321.341, 429.056 329.387 C 430.400 330.552, 432.034 332.700, 432.687 334.161 C 433.844 336.750, 441.794 343, 443.930 343 C 445.606 343, 445.249 341.761, 441.500 334.569 C 433.090 318.434, 438.476 304.464, 451.169 309.491 C 452.570 310.046, 452.951 309.218, 453.550 304.326 C 455.560 287.889, 466.810 277.098, 477.346 281.500 C 479.320 282.325, 482.322 283, 484.016 283 C 486.009 283, 487.906 283.874, 489.393 285.479 C 494.466 290.953, 498.091 280.859, 493.438 274.216 C 491.286 271.142, 488.220 271.388, 486.776 274.750 C 486.127 276.262, 485.483 277.666, 485.345 277.869 C 485.208 278.072, 483.193 276.609, 480.868 274.619 C 475.546 270.064, 473.718 270.089, 466.405 274.820 M 334.362 273.500 C 333.904 274.692, 334.430 275.816, 336 277 C 337.393 278.051, 338.079 279.352, 337.725 280.274 C 337.271 281.457, 338.044 281.890, 341.144 282.185 C 346.600 282.705, 346.825 281.609, 341.833 278.830 C 335.611 275.367, 335.505 273.523, 341.575 274.355 C 345.157 274.846, 346.127 274.727, 345.297 273.897 C 343.201 271.801, 335.126 271.508, 334.362 273.500 M 399.543 280.931 C 399.226 281.443, 399.494 282.187, 400.138 282.585 C 400.843 283.021, 401.042 282.877, 400.638 282.223 C 400.233 281.567, 401.064 280.970, 402.733 280.718 C 405.500 280.300, 405.500 280.300, 402.809 280.150 C 401.329 280.067, 399.859 280.419, 399.543 280.931 M 333 283.594 C 333 284.470, 333.900 285.423, 335 285.710 C 337.858 286.458, 337.461 288.231, 333.994 290.203 C 329.831 292.572, 330.249 294.458, 335.500 297 C 337.975 298.198, 340.422 299.926, 340.938 300.839 C 341.652 302.103, 342.156 302.222, 343.051 301.337 C 344.705 299.700, 343.446 298.162, 338.992 296.380 C 332.108 293.626, 332.456 291.207, 339.864 290.330 C 345.875 289.618, 346.369 288.607, 341.492 286.997 C 339.563 286.361, 337.522 284.976, 336.957 283.920 C 335.714 281.597, 333 281.374, 333 283.594 M 466.955 286.659 C 453.752 298.587, 455.833 322.332, 469.300 313.420 C 473.048 310.940, 473.266 310.577, 471.602 309.590 C 466.105 306.331, 465.541 305.427, 466.543 301.472 C 467.775 296.609, 469.973 295.174, 473.910 296.660 C 477.535 298.028, 478.077 297.099, 477.290 290.873 C 476.227 282.462, 473.040 281.162, 466.955 286.659 M 481.345 286.544 C 481.019 287.393, 480.998 289.603, 481.299 291.456 C 481.961 295.537, 478.984 307.668, 476.134 312.497 C 474.067 316, 474.067 316, 477.423 316 C 482.699 316, 485.803 312.984, 483.666 309.934 C 481.135 306.320, 481.610 303.450, 485.205 300.637 C 488.568 298.004, 489.362 291.413, 486.875 286.766 C 485.710 284.590, 482.150 284.446, 481.345 286.544 M 364.378 289.293 C 361.194 292.210, 360.706 293.321, 360.092 299.043 C 359.711 302.594, 358.850 306.500, 358.179 307.722 C 356.401 310.961, 361.482 325.307, 366.991 332.605 C 376.643 345.389, 403.971 359.682, 406.464 353.250 C 407.102 351.605, 407.225 351.612, 408.515 353.363 C 410.708 356.343, 436.041 348.271, 435.982 344.611 C 435.912 340.298, 428.361 337.189, 422.644 339.119 C 413.590 342.175, 408.523 342.569, 405.276 340.468 C 398.014 335.770, 391.920 329.532, 389.335 324.149 C 387.842 321.042, 385.806 317.427, 384.810 316.115 C 383.653 314.591, 383 312.020, 383 308.991 C 383 306.384, 382.325 302.338, 381.500 300 C 380.675 297.662, 380 294.488, 380 292.947 C 380 286.005, 370.412 283.762, 364.378 289.293 M 546.341 294.096 C 539.204 295.288, 532.275 298.149, 520 304.971 C 514.225 308.181, 506.350 311.938, 502.500 313.320 C 498.650 314.702, 493.266 316.834, 490.536 318.058 C 480.561 322.529, 464.933 322.122, 455.144 317.134 C 443.975 311.443, 443.422 311.536, 442.661 319.250 C 441.785 328.127, 447.330 339.714, 455.825 346.757 C 465.897 355.107, 490.378 371.025, 494.069 371.624 C 502.323 372.963, 529 352.181, 529 344.412 C 529 343.275, 515.021 344.902, 505.969 347.093 C 489.151 351.162, 476.104 350.399, 463.451 344.606 C 454.370 340.449, 444.366 328.281, 448.090 325.923 C 450.609 324.329, 451.566 324.927, 453.776 329.476 C 459.698 341.666, 478.567 346.320, 503 341.618 C 550.024 332.567, 573.614 344.781, 561.864 372.095 C 559.178 378.339, 559.912 379.064, 565.803 375.985 C 596.170 360.115, 593.223 314.655, 560.614 295.952 C 555.190 292.841, 554.437 292.743, 546.341 294.096 M 439.359 304.923 C 435.964 306.993, 434.462 308.795, 435.373 309.706 C 435.688 310.021, 437.503 309.091, 439.406 307.639 C 441.309 306.188, 443.373 305, 443.992 305 C 444.611 305, 444.840 304.550, 444.500 304 C 443.640 302.609, 442.951 302.732, 439.359 304.923 M 373.094 312.387 C 372.276 313.372, 372.234 314.026, 372.959 314.474 C 373.539 314.833, 374.292 314.404, 374.631 313.520 C 375.475 311.320, 374.547 310.636, 373.094 312.387 M 377.004 322.496 C 375.714 323.869, 374.962 325.296, 375.333 325.667 C 376.064 326.397, 381 322.180, 381 320.826 C 381 319.299, 379.365 319.982, 377.004 322.496 M 320 334.776 C 320 335.203, 321.913 335.405, 324.250 335.224 C 331.255 334.681, 331.853 334.239, 325.750 334.116 C 322.587 334.052, 320 334.349, 320 334.776 M 309.400 341.864 C 301.722 347.504, 300.293 349.693, 302.780 352.009 C 304.862 353.949, 305.644 356.107, 308.030 366.500 C 309.924 374.750, 313.198 383.100, 314.386 382.709 C 320.536 380.683, 318.274 361.082, 311.218 355.255 C 308.500 353.010, 308.500 353.010, 311.295 353.005 C 318.430 352.992, 326.162 373.526, 321.628 380.445 C 318.437 385.315, 322.001 385.966, 327.565 381.530 C 331.753 378.191, 327.947 357.988, 322.252 353.325 C 319.795 351.314, 319.715 351.068, 321.500 351.040 C 328.075 350.934, 331.283 356.701, 334.175 373.828 C 335.894 384.014, 343.528 381.017, 343.469 370.179 C 343.437 364.340, 343.337 364.101, 336.629 353.876 C 327.944 340.636, 317.404 335.986, 309.400 341.864 M 275.213 341.507 C 271.718 343.025, 269 347.839, 269 352.510 C 269 355.084, 269 355.084, 273.750 352.410 C 285.564 345.760, 286.810 336.468, 275.213 341.507 M 390.459 341.067 C 390.096 341.653, 390.040 342.373, 390.333 342.667 C 391.050 343.383, 393 342.121, 393 340.941 C 393 339.663, 391.274 339.748, 390.459 341.067 M 396.694 344.639 C 395.895 345.438, 396.798 347, 398.059 347 C 398.577 347, 399 346.325, 399 345.500 C 399 343.954, 397.820 343.513, 396.694 344.639 M 239.564 352.934 C 236.928 355.685, 236.795 356.229, 237.433 361.684 C 239.413 378.629, 244.253 381.399, 264.145 376.968 C 274.640 374.630, 274.719 374.657, 273.126 379.974 C 272.469 382.167, 272.010 386.835, 272.107 390.347 C 272.363 399.655, 271.102 400.625, 262.969 397.371 C 259.861 396.127, 258.764 395.069, 258.329 392.894 C 257.577 389.134, 255.205 387.072, 253.926 389.064 C 251.745 392.459, 255.649 401.173, 260.952 404.747 C 272.651 412.631, 282.178 402.023, 280.601 382.867 C 279.884 374.157, 280.397 372, 283.184 372 C 285.259 372, 285.543 394.930, 283.541 400.750 C 282.639 403.370, 284.593 403.735, 289.800 401.920 C 294.943 400.127, 295.925 388.107, 292.443 369.549 C 291.767 365.945, 293.100 364.211, 294.890 366.367 C 296.344 368.120, 298.987 385.746, 298.994 393.750 C 299 400.221, 299.306 400.611, 303.185 399.096 C 310.638 396.186, 311.110 393.059, 306.451 377.500 C 305.133 373.100, 303.479 366.174, 302.776 362.108 C 302 357.623, 300.907 354.403, 299.998 353.921 C 289.404 348.304, 288.547 348.474, 271.515 359.576 C 257.164 368.930, 247.864 366.571, 244.609 352.750 C 243.791 349.273, 243.044 349.300, 239.564 352.934 M 348.252 371.500 C 348.263 373.700, 348.468 374.482, 348.707 373.238 C 348.946 371.994, 348.937 370.194, 348.687 369.238 C 348.437 368.282, 348.241 369.300, 348.252 371.500" stroke="none" fill="#e0b773" fill-rule="evenodd"/><path d="M 184.500 3.097 C 180.100 4.740, 174.250 6.902, 171.500 7.903 C 162.561 11.157, 150.790 17.836, 136 28.047 C 115.441 42.241, 79.307 58.850, 61.750 62.177 C 55.156 63.427, 53.864 64.464, 56.108 66.708 C 58.255 68.855, 44.868 89.444, 38.736 93.423 C 37.479 94.239, 32.559 95.170, 27.500 95.550 C 14.907 96.495, 10.012 100.454, 10.004 109.699 C 9.995 119.117, 29.114 126.283, 41.564 121.529 C 47.157 119.393, 48.523 120.355, 44.500 123.597 C 36.961 129.673, 30.259 130.696, 13.240 128.370 C -1.961 126.293, -5.609 145.147, 8.652 152.085 C 20.265 157.735, 42.846 154.011, 55.780 144.312 C 62.797 139.050, 60.754 142.998, 51.933 151.744 C 42.281 161.313, 34.792 166.073, 24 169.500 C 0.766 176.877, -6.895 199.560, 12 205.030 C 30.236 210.310, 49.125 198.062, 77.465 162.581 C 81.822 157.125, 85.537 153.111, 85.720 153.659 C 86.074 154.722, 74.036 175.140, 71.074 178.500 C 70.104 179.600, 67.570 183.425, 65.443 187 C 60.697 194.976, 51.154 204.328, 40.384 211.558 C 22.730 223.408, 12.891 240.515, 20.321 246.439 C 33.902 257.268, 51.274 256.952, 62.463 245.673 C 74.858 233.177, 100.785 187.772, 115.082 153.522 C 118.937 144.287, 120.588 141.258, 120.806 143.022 C 123.507 164.917, 138.863 159.258, 147.460 133.200 C 150.557 123.810, 151.237 123.584, 155.335 130.575 C 159.004 136.831, 165.261 139.622, 167.500 136 C 169.149 133.331, 171.877 134.986, 171.335 138.326 C 169.683 148.503, 176.248 154.285, 185.802 151.067 C 189.176 149.930, 192.114 149, 192.332 149 C 192.549 149, 192.956 151.867, 193.238 155.371 C 193.604 159.934, 194.421 162.651, 196.119 164.947 C 198.545 168.228, 199.083 168.313, 205.606 166.445 C 208.440 165.633, 209.572 171.696, 207.508 176.636 C 205.524 181.383, 207.907 185.581, 213.500 187.196 C 219.770 189.005, 220 189.406, 220 198.500 C 220 207.330, 220.349 208.041, 225.500 209.695 C 228.381 210.620, 228.510 210.914, 228.756 217.079 C 229.126 226.376, 229.586 227.576, 233.489 229.428 C 240.645 232.824, 237.603 238.678, 225.548 244.710 C 213.917 250.530, 207.991 254.896, 204.490 260.226 C 200.350 266.526, 188.283 278.698, 173 291.987 C 148.772 313.055, 128.091 337.830, 123.322 351.500 C 122.747 353.150, 120.864 356.726, 119.138 359.446 C 117.412 362.166, 116 364.873, 116 365.462 C 116 366.050, 114.182 369.642, 111.961 373.444 C 107.276 381.460, 107.272 383.094, 111.933 384.606 C 114.749 385.519, 115.562 386.459, 116.611 390.010 C 118.773 397.334, 121.536 397.754, 128.915 391.879 C 131.762 389.612, 134.213 387.925, 134.361 388.129 C 134.510 388.333, 135.052 390.256, 135.566 392.402 C 137.407 400.092, 142.099 399.522, 148.751 390.800 C 152.836 385.442, 154.153 385.205, 155.065 389.662 C 156.291 395.660, 159.515 396.743, 164.490 392.829 C 167.202 390.696, 171.956 381.947, 172.006 379 C 172.076 374.778, 173.792 374.580, 177.926 378.315 C 187.433 386.903, 193.131 379.531, 198.426 351.791 C 203.017 327.743, 214.267 302.838, 218.588 307.159 C 220.137 308.709, 215.803 320.768, 213.095 322.442 C 211.657 323.330, 211.682 326, 213.129 326 C 213.750 326, 216.001 324.425, 218.132 322.500 C 224.053 317.150, 227.312 317.984, 222.717 323.673 C 212.909 335.821, 211.946 343.371, 221.337 334.500 C 225.687 330.391, 231.320 328.092, 229.300 331.250 C 228.860 331.938, 226.856 334.998, 224.847 338.051 C 215.019 352.983, 215.814 358.274, 226.380 348.250 C 233.524 341.472, 234.366 342.326, 230.546 352.475 C 227.425 360.765, 227.421 361, 230.393 361 C 232.537 361, 232.898 361.632, 233.856 367.071 C 236.274 380.800, 244.379 385.299, 258.993 381.022 C 267.604 378.503, 269.038 379.303, 268.356 386.250 C 267.429 395.698, 265.334 396.188, 261.209 387.923 C 258.913 383.324, 252.149 382.792, 250.637 387.092 C 245.520 401.641, 265.664 417.051, 278.060 408.071 C 281.316 405.713, 282.782 405.253, 285.586 405.708 C 287.706 406.052, 290.522 405.662, 292.784 404.711 C 294.828 403.851, 298.676 402.893, 301.335 402.582 C 309.358 401.641, 315 396.054, 315 389.050 C 315 385.802, 316.547 385.152, 319.948 386.972 C 322.362 388.264, 344.894 381.865, 346.719 379.370 C 352.560 371.381, 341.302 349.412, 326.320 339.563 C 318.337 334.315, 318.440 334, 328.134 334 C 332.608 334, 337.993 333.483, 340.102 332.851 C 343.122 331.946, 344.269 331.978, 345.502 333.002 C 346.789 334.070, 347.522 334.059, 349.617 332.937 C 352.041 331.640, 352.338 331.780, 355.666 335.787 C 359.223 340.068, 362.596 341.216, 363.638 338.500 C 364.564 336.088, 365.756 336.678, 371.793 342.540 C 380.501 350.993, 389.400 355.883, 401.750 359.003 C 405.725 360.008, 406 360.301, 406 363.539 C 406 368.256, 407.829 367.922, 408.606 363.062 C 409.593 356.891, 413.279 356.437, 414.798 362.299 C 415.789 366.124, 417.635 365.677, 417.182 361.722 C 416.914 359.374, 417.361 358.770, 420.067 357.827 C 421.828 357.213, 427.596 354.596, 432.885 352.011 C 446.151 345.528, 449.186 345.048, 451.996 348.994 C 453.191 350.672, 455.848 352.902, 457.901 353.950 C 459.954 354.997, 462.244 356.589, 462.990 357.488 C 467.163 362.516, 490.991 377, 495.090 377 C 504.900 377, 527.004 359.818, 533.380 347.237 C 536.221 341.631, 542.933 340.701, 551.673 344.702 C 561.352 349.133, 561.624 368.401, 552.147 378.291 C 545.834 384.878, 555.247 385.871, 567.646 379.924 C 591.364 368.550, 599.168 340.725, 585.269 317.092 C 568.462 288.518, 552.143 283.890, 521.807 299.097 C 493.316 313.379, 488.051 315.161, 489.884 309.902 C 490.498 308.142, 491 303.557, 491 299.713 C 491 292.916, 491.113 292.601, 495.114 288.260 C 502.666 280.067, 495.947 266.939, 486.104 270.655 C 483.977 271.457, 482.690 271.393, 480.890 270.396 C 477.394 268.458, 471.478 268.716, 467 271 C 464.844 272.100, 462.417 273, 461.608 273 C 460.798 273, 459.175 274.350, 458 276 C 455.218 279.907, 454.615 279.792, 452.732 275 C 451.868 272.800, 450.675 271, 450.080 271 C 448.667 271, 448.664 270.987, 451.059 276.400 C 455.183 285.723, 442.896 295.399, 434.328 289.577 C 429.144 286.054, 426.566 286.279, 430.903 289.876 C 436.726 294.705, 433.223 296.812, 426.786 292.351 C 421.791 288.890, 420.795 290.003, 425.325 293.981 C 428.861 297.085, 428.861 297.085, 425.393 304.389 C 419.905 315.944, 419.666 323.073, 424.571 328.902 C 427.063 331.863, 427.063 331.863, 424.948 333.834 C 416.950 341.286, 399.389 337.423, 406.677 329.815 C 408.150 328.278, 409.012 326.679, 408.594 326.261 C 408.177 325.843, 406.463 327.037, 404.786 328.913 C 401.606 332.472, 399.934 332.427, 397.595 328.720 C 396.781 327.429, 397.186 326.415, 399.465 324.036 C 402.772 320.585, 401.595 319.957, 397.645 323.065 C 394.464 325.567, 394.023 325.339, 391.233 319.752 C 388.186 313.651, 389.793 308.559, 394.494 309.418 C 398.753 310.196, 400.885 308.683, 399.250 306.044 C 397.449 303.137, 397.685 302.296, 400.500 301.589 C 403.393 300.863, 403.669 298.951, 401.385 295.465 C 399.790 293.030, 399.808 293, 402.826 293 C 407.470 293, 407.533 291.412, 403.086 286.361 C 398.513 281.166, 398.606 280, 403.590 280 C 409.153 280, 409.023 277.599, 403.137 271.639 C 400.312 268.778, 398 265.764, 398 264.941 C 398 264.118, 397.240 262.361, 396.312 261.035 C 395.384 259.710, 394.364 257.027, 394.047 255.074 C 393.364 250.875, 390.351 249.534, 389.817 253.192 C 389.498 255.380, 389.286 255.292, 385.745 251.500 C 381.241 246.677, 381.249 246.828, 385.014 238.783 C 388.684 230.941, 392.410 216.607, 393.927 204.500 C 397.886 172.888, 397.841 173.049, 402.682 173.015 C 404 173.006, 405.762 171.714, 407.134 169.750 C 410.415 165.052, 410.764 164.973, 416.082 167.733 C 422.200 170.907, 425.421 170.281, 427.714 165.474 C 429.802 161.095, 430.156 161.127, 433.368 165.980 C 435.857 169.741, 442.218 174, 445.346 174 C 446.130 174, 447.540 172.382, 448.479 170.403 C 450.185 166.807, 450.185 166.807, 452.510 171.824 C 457.091 181.712, 470 181.433, 470 171.447 C 470 164.597, 471.588 166.896, 475.694 179.688 C 483.872 205.166, 483.030 203.692, 490.272 205.211 C 499.358 207.117, 502.583 202.221, 501.847 187.640 C 501.278 176.376, 502.998 177.955, 507.957 193.250 C 522.977 239.581, 548.552 259.654, 545.435 222.665 C 544.746 214.500, 544.746 214.500, 549.533 221.500 C 558.194 234.165, 571.790 251, 573.358 251 C 573.863 251, 576.266 252.834, 578.698 255.076 C 600.501 275.173, 615.110 255.993, 595.542 232.962 C 571.823 205.045, 543.002 156.302, 532.457 126.273 C 530.025 119.347, 530.873 118.930, 537.737 123.679 C 558.244 137.866, 570.390 138.815, 576.646 126.718 C 581.050 118.201, 578.545 115.115, 559.500 105.593 C 548.575 100.131, 542.463 96.348, 537 91.668 C 532.875 88.134, 525.236 81.695, 520.024 77.358 C 514.812 73.022, 505.501 63.597, 499.334 56.413 C 477.698 31.211, 465.421 29.959, 437.356 50.091 C 413.407 67.272, 394.470 73.421, 360.500 75.047 C 322.168 76.883, 316.059 79.845, 326.814 91.382 C 328.540 93.233, 329.070 94.419, 328.298 94.699 C 319.895 97.745, 318.185 102.985, 323.627 109.009 C 327.374 113.156, 327.374 113.156, 324.181 115.656 C 318.717 119.932, 318.369 121.593, 321.907 126.521 C 325.684 131.779, 325.681 131.561, 322 135 C 318.547 138.225, 318.120 141.958, 320.540 147.749 C 322.079 151.434, 322.079 151.434, 318.470 154.467 C 314.965 157.413, 314.881 157.645, 315.535 162.567 C 316.161 167.273, 316.024 167.754, 313.604 169.340 C 310.601 171.307, 310.327 173.799, 312.626 178.243 C 314.214 181.315, 314.190 181.439, 311.570 183.693 C 306.216 188.299, 305.304 187.019, 304.463 173.729 C 302.397 141.071, 286.829 81.676, 273.476 55.507 C 251.320 12.087, 216.062 -8.681, 184.500 3.097 M 524 88 C 524.825 88.533, 526.400 88.969, 527.500 88.969 C 529.156 88.969, 529.242 88.803, 528 88 C 527.175 87.467, 525.600 87.031, 524.500 87.031 C 522.844 87.031, 522.758 87.197, 524 88 M 365.506 248.750 C 367.923 254.619, 367.120 255.077, 358.831 252.562 C 352.960 250.780, 350 251.449, 350 254.558 C 350 257.826, 348.828 258.203, 343.981 256.493 C 335.170 253.385, 330.476 254.791, 334.736 259.263 C 338.767 263.494, 332.453 268.918, 326.934 265.965 C 324.661 264.748, 324.485 265.735, 326.500 268.397 C 328.542 271.096, 327.524 272, 322.441 272 C 316.863 272, 316.631 273.707, 321.659 277.741 C 326.100 281.304, 325.438 283, 319.608 283 C 317.257 283, 315.037 283.296, 314.675 283.658 C 313.792 284.542, 315.912 287, 317.557 287 C 323.925 287, 325.115 290.677, 318.965 291.348 C 312.524 292.050, 314 294.706, 322.333 297.407 C 324.925 298.247, 323.857 300.439, 320.673 300.816 C 317.725 301.165, 317.026 303.689, 319.604 304.678 C 320.854 305.158, 321.072 306.146, 320.592 309.147 C 319.899 313.484, 321.017 314.077, 324.839 311.400 C 328.308 308.970, 330.990 311.786, 331.032 317.905 C 331.063 322.500, 331.063 322.500, 333.484 319.750 C 336.670 316.130, 337.587 316.273, 339.882 320.750 C 343.572 327.946, 345.781 329.758, 347.635 327.111 C 349.492 324.459, 351.531 325.830, 356.592 333.133 C 358.066 335.260, 359.599 337, 359.999 337 C 360.945 337, 359.106 326.843, 357.896 325.378 C 354.329 321.065, 350.730 304, 353.386 304 C 354.250 304, 355.016 302.397, 355.416 299.750 C 356.960 289.556, 365.413 281.218, 372.918 282.486 C 380.423 283.754, 382.903 286.885, 386.518 299.657 C 388.233 305.718, 388.321 305.821, 392.130 306.184 C 396.578 306.608, 396.451 306.773, 394.526 303.051 C 392.847 299.804, 394.360 297.434, 397.373 298.590 C 399.703 299.484, 399.450 296.718, 397 294.500 C 393.950 291.740, 394.421 289.186, 398.049 288.813 C 401.098 288.500, 401.098 288.500, 397.949 284.232 C 393.801 278.609, 394.480 276.830, 400.463 277.650 C 403.048 278.004, 405 277.870, 405 277.339 C 405 275.793, 397.695 269.193, 394.763 268.089 C 392.323 267.171, 392.133 266.779, 393.013 264.465 C 394.899 259.505, 393.176 255.010, 390.691 258.408 C 388.965 260.769, 387.663 260.011, 384.302 254.686 C 381.780 250.692, 381.648 250.622, 380.689 252.770 C 379.384 255.696, 379.253 255.665, 373 251 C 367.222 246.689, 364.296 245.810, 365.506 248.750 M 365.875 263 C 365.806 263.550, 365.637 264.450, 365.500 265 C 365.363 265.550, 365.194 266.520, 365.125 267.155 C 365.049 267.854, 364.218 267.602, 363.019 266.517 C 360.784 264.494, 358.621 265.518, 357.702 269.033 C 357.151 271.138, 359.531 271.908, 360.218 269.847 C 360.481 269.056, 361.437 269.240, 363.257 270.433 C 366.393 272.488, 368 271.813, 368 268.441 C 368 265.487, 369.534 265.261, 371 268 C 372.037 269.938, 375 270.824, 375 269.196 C 375 266.507, 366.185 260.522, 365.875 263 M 466.405 274.820 C 463.157 276.922, 459.175 280.381, 457.556 282.507 C 452.751 288.819, 448.852 291.851, 442.500 294.216 C 428.087 299.581, 419.770 321.341, 429.056 329.387 C 430.400 330.552, 432.034 332.700, 432.687 334.161 C 433.844 336.750, 441.794 343, 443.930 343 C 445.606 343, 445.249 341.761, 441.500 334.569 C 433.090 318.434, 438.476 304.464, 451.169 309.491 C 452.570 310.046, 452.951 309.218, 453.550 304.326 C 455.560 287.889, 466.810 277.098, 477.346 281.500 C 479.320 282.325, 482.322 283, 484.016 283 C 486.009 283, 487.906 283.874, 489.393 285.479 C 494.466 290.953, 498.091 280.859, 493.438 274.216 C 491.286 271.142, 488.220 271.388, 486.776 274.750 C 486.127 276.262, 485.483 277.666, 485.345 277.869 C 485.208 278.072, 483.193 276.609, 480.868 274.619 C 475.546 270.064, 473.718 270.089, 466.405 274.820 M 334.362 273.500 C 333.904 274.692, 334.430 275.816, 336 277 C 337.393 278.051, 338.079 279.352, 337.725 280.274 C 337.271 281.457, 338.044 281.890, 341.144 282.185 C 346.600 282.705, 346.825 281.609, 341.833 278.830 C 335.611 275.367, 335.505 273.523, 341.575 274.355 C 345.157 274.846, 346.127 274.727, 345.297 273.897 C 343.201 271.801, 335.126 271.508, 334.362 273.500 M 440.113 273.584 C 441.183 276.579, 446.597 285.996, 447.250 285.998 C 449.464 286.005, 446.043 278.304, 442.306 274.871 C 440.887 273.567, 439.900 272.988, 440.113 273.584 M 333 283.594 C 333 284.470, 333.900 285.423, 335 285.710 C 337.858 286.458, 337.461 288.231, 333.994 290.203 C 329.831 292.572, 330.249 294.458, 335.500 297 C 337.975 298.198, 340.422 299.926, 340.938 300.839 C 341.652 302.103, 342.156 302.222, 343.051 301.337 C 344.705 299.700, 343.446 298.162, 338.992 296.380 C 332.108 293.626, 332.456 291.207, 339.864 290.330 C 345.875 289.618, 346.369 288.607, 341.492 286.997 C 339.563 286.361, 337.522 284.976, 336.957 283.920 C 335.714 281.597, 333 281.374, 333 283.594 M 466.955 286.659 C 453.752 298.587, 455.833 322.332, 469.300 313.420 C 473.048 310.940, 473.266 310.577, 471.602 309.590 C 466.105 306.331, 465.541 305.427, 466.543 301.472 C 467.775 296.609, 469.973 295.174, 473.910 296.660 C 477.535 298.028, 478.077 297.099, 477.290 290.873 C 476.227 282.462, 473.040 281.162, 466.955 286.659 M 481.345 286.544 C 481.019 287.393, 480.998 289.603, 481.299 291.456 C 481.961 295.537, 478.984 307.668, 476.134 312.497 C 474.067 316, 474.067 316, 477.423 316 C 482.699 316, 485.803 312.984, 483.666 309.934 C 481.135 306.320, 481.610 303.450, 485.205 300.637 C 488.568 298.004, 489.362 291.413, 486.875 286.766 C 485.710 284.590, 482.150 284.446, 481.345 286.544 M 364.378 289.293 C 361.194 292.210, 360.706 293.321, 360.092 299.043 C 359.711 302.594, 358.850 306.500, 358.179 307.722 C 356.401 310.961, 361.482 325.307, 366.991 332.605 C 376.643 345.389, 403.971 359.682, 406.464 353.250 C 407.102 351.605, 407.225 351.612, 408.515 353.363 C 410.708 356.343, 436.041 348.271, 435.982 344.611 C 435.912 340.298, 428.361 337.189, 422.644 339.119 C 413.590 342.175, 408.523 342.569, 405.276 340.468 C 398.014 335.770, 391.920 329.532, 389.335 324.149 C 387.842 321.042, 385.806 317.427, 384.810 316.115 C 383.653 314.591, 383 312.020, 383 308.991 C 383 306.384, 382.325 302.338, 381.500 300 C 380.675 297.662, 380 294.488, 380 292.947 C 380 286.005, 370.412 283.762, 364.378 289.293 M 546.341 294.096 C 539.204 295.288, 532.275 298.149, 520 304.971 C 514.225 308.181, 506.350 311.938, 502.500 313.320 C 498.650 314.702, 493.266 316.834, 490.536 318.058 C 480.561 322.529, 464.933 322.122, 455.144 317.134 C 443.975 311.443, 443.422 311.536, 442.661 319.250 C 441.785 328.127, 447.330 339.714, 455.825 346.757 C 465.897 355.107, 490.378 371.025, 494.069 371.624 C 502.323 372.963, 529 352.181, 529 344.412 C 529 343.275, 515.021 344.902, 505.969 347.093 C 489.151 351.162, 476.104 350.399, 463.451 344.606 C 454.370 340.449, 444.366 328.281, 448.090 325.923 C 450.609 324.329, 451.566 324.927, 453.776 329.476 C 459.698 341.666, 478.567 346.320, 503 341.618 C 550.024 332.567, 573.614 344.781, 561.864 372.095 C 559.178 378.339, 559.912 379.064, 565.803 375.985 C 596.170 360.115, 593.223 314.655, 560.614 295.952 C 555.190 292.841, 554.437 292.743, 546.341 294.096 M 439.359 304.923 C 435.964 306.993, 434.462 308.795, 435.373 309.706 C 435.688 310.021, 437.503 309.091, 439.406 307.639 C 441.309 306.188, 443.373 305, 443.992 305 C 444.611 305, 444.840 304.550, 444.500 304 C 443.640 302.609, 442.951 302.732, 439.359 304.923 M 373.094 312.387 C 372.276 313.372, 372.234 314.026, 372.959 314.474 C 373.539 314.833, 374.292 314.404, 374.631 313.520 C 375.475 311.320, 374.547 310.636, 373.094 312.387 M 377.004 322.496 C 375.714 323.869, 374.962 325.296, 375.333 325.667 C 376.064 326.397, 381 322.180, 381 320.826 C 381 319.299, 379.365 319.982, 377.004 322.496 M 293.164 332.725 C 293.497 338.396, 293.472 338.455, 290.500 338.985 C 285.392 339.896, 286.138 345.235, 291.500 346.145 C 301.108 347.774, 315.467 334.700, 307.168 331.878 C 304.544 330.987, 300.980 329.524, 299.248 328.628 C 293.606 325.710, 292.785 326.263, 293.164 332.725 M 309.400 341.864 C 301.722 347.504, 300.293 349.693, 302.780 352.009 C 304.862 353.949, 305.644 356.107, 308.030 366.500 C 309.924 374.750, 313.198 383.100, 314.386 382.709 C 320.536 380.683, 318.274 361.082, 311.218 355.255 C 308.500 353.010, 308.500 353.010, 311.295 353.005 C 318.430 352.992, 326.162 373.526, 321.628 380.445 C 318.437 385.315, 322.001 385.966, 327.565 381.530 C 331.753 378.191, 327.947 357.988, 322.252 353.325 C 319.795 351.314, 319.715 351.068, 321.500 351.040 C 328.075 350.934, 331.283 356.701, 334.175 373.828 C 335.894 384.014, 343.528 381.017, 343.469 370.179 C 343.437 364.340, 343.337 364.101, 336.629 353.876 C 327.944 340.636, 317.404 335.986, 309.400 341.864 M 275.213 341.507 C 271.718 343.025, 269 347.839, 269 352.510 C 269 355.084, 269 355.084, 273.750 352.410 C 285.564 345.760, 286.810 336.468, 275.213 341.507 M 390.459 341.067 C 390.096 341.653, 390.040 342.373, 390.333 342.667 C 391.050 343.383, 393 342.121, 393 340.941 C 393 339.663, 391.274 339.748, 390.459 341.067 M 258 341.758 C 248.688 343.075, 247.499 344.612, 250.024 352.070 C 252.680 359.916, 256.159 362.675, 260.327 360.241 C 267.380 356.122, 265.439 340.706, 258 341.758 M 396.694 344.639 C 395.895 345.438, 396.798 347, 398.059 347 C 398.577 347, 399 346.325, 399 345.500 C 399 343.954, 397.820 343.513, 396.694 344.639 M 239.564 352.934 C 236.928 355.685, 236.795 356.229, 237.433 361.684 C 239.413 378.629, 244.253 381.399, 264.145 376.968 C 274.640 374.630, 274.719 374.657, 273.126 379.974 C 272.469 382.167, 272.010 386.835, 272.107 390.347 C 272.363 399.655, 271.102 400.625, 262.969 397.371 C 259.861 396.127, 258.764 395.069, 258.329 392.894 C 257.577 389.134, 255.205 387.072, 253.926 389.064 C 251.745 392.459, 255.649 401.173, 260.952 404.747 C 272.651 412.631, 282.178 402.023, 280.601 382.867 C 279.884 374.157, 280.397 372, 283.184 372 C 285.259 372, 285.543 394.930, 283.541 400.750 C 282.639 403.370, 284.593 403.735, 289.800 401.920 C 294.943 400.127, 295.925 388.107, 292.443 369.549 C 291.767 365.945, 293.100 364.211, 294.890 366.367 C 296.344 368.120, 298.987 385.746, 298.994 393.750 C 299 400.221, 299.306 400.611, 303.185 399.096 C 310.638 396.186, 311.110 393.059, 306.451 377.500 C 305.133 373.100, 303.479 366.174, 302.776 362.108 C 302 357.623, 300.907 354.403, 299.998 353.921 C 289.404 348.304, 288.547 348.474, 271.515 359.576 C 257.164 368.930, 247.864 366.571, 244.609 352.750 C 243.791 349.273, 243.044 349.300, 239.564 352.934" stroke="none" fill="#5b3c1c" fill-rule="evenodd"/></svg>